<svg viewBox="0 0 1440 975.4688" x="0" y="0" fill="none" xmlns="http://www.w3.org/2000/svg"><g id="Group" xmlns="http://www.w3.org/2000/svg">
<g id="layer_32">
<g id="Group_2">
<g id="Group_3">
<g id="Group_4">
<path id="Vector" d="M911.466,-55.2072c7.51,-85.3618 177.214,-80.4148 226.044,-81.3308c53.16,-0.977 255.36,-7.085 254.49,68.5952c0,0.2138 0,0.4887 0,0.7025c-0.53,28.5253 -33.06,51.4005 -72.11,50.6675c-14.74,-0.2749 -28.35,-3.7871 -39.6,-9.6204c-8.2,20.95109 -34.87,35.97727 -66.19,35.39699c-1.18,0 -2.43,-0.03054 -3.61,-0.09162c0.18,1.77133 0.22,3.51223 0.18,5.31413c-0.77,42.116 -50.13,75.3446 -110.21,74.2452c-60.05,-1.0995 -108.1,-36.0995 -107.321,-78.2155c0,-0.76356 0.031,-1.58816 0.125,-2.38222c-46.368,-3.23735 -84.664,-30.75478 -81.798,-63.25038z" fill="white" fill-opacity="0.4"/>
</g>
</g>
<g id="Group_5">
<path id="Vector_2" d="M930.506,-55.1461c6.886,-77.9409 161.784,-73.4209 206.344,-74.2449c48.49,-0.886 233.03,-6.444 232.25,62.6088c0,0.2138 0,0.4276 0,0.6413c-0.5,26.0515 -30.17,46.8805 -65.78,46.2391c-13.43,-0.2443 -25.93,-3.4511 -36.18,-8.7653c-7.45,19.11871 -31.82,32.86215 -60.39,32.31242c-1.12,0 -2.21,-0.06108 -3.27,-0.12216c0.18,1.61866 0.18,3.23734 0.15,4.88655c-0.75,38.45109 -45.77,68.74779 -100.62,67.73999c-54.81,-1.0079 -98.62,-32.9843 -97.9,-71.4049c0,-0.70245 0,-1.46597 0.09,-2.16842c-42.318,-2.96247 -77.312,-28.06718 -74.694,-57.72248z" fill="white"/>
</g>
</g>
</g>
<g id="layer_31">
<g id="Group_6">
<g id="Group_7">
<g id="Group_8">
<path id="Vector_3" d="M284.541,27.5206c0,30.4272 -22.044,55.1384 -49.226,55.1384c-5.903,0 -11.532,-1.1652 -16.768,-3.3198c0.039,0.3518 0.039,0.7255 0.039,1.0993c0,32.7795 -23.731,59.3375 -52.933,59.3375c-17.67,0 -33.321,-9.717 -42.931,-24.645c-10.727,8.464 -23.73,13.389 -37.8311,13.389c-4.7265,0 -9.3745,-0.572 -13.8265,-1.649c-12.179,22.578 -34.3014,37.704 -59.542,37.704c-36.5764,0 -66.5631,-31.68 -69.2892,-71.8909h-0.706c-30.8889,0 -55.9332,-28.0968 -55.9332,-62.7232c0,-34.62635 25.0443,-62.7232 55.9332,-62.7232c9.904,0 19.2001,2.902 27.241,7.9586c-0.0588,-1.3411 -0.098,-2.7042 -0.098,-4.0672c0,-49.862 36.04684,-90.2701 80.5465,-90.2701c32.5755,0 60.5813,21.6329 73.2703,52.8076c9.728,-6.5515 21.063,-10.267 33.223,-10.267c29.575,0 54.521,22.1609 62.268,52.4782c5.393,-2.3084 11.218,-3.5615 17.317,-3.5615c27.183,0 49.226,24.71109 49.226,55.1823z" fill="white" fill-opacity="0.4"/>
</g>
</g>
<g id="Group_9">
<path id="Vector_4" d="M268.734,18.8805c0,29.5698 -21.417,53.5774 -47.834,53.5774c-5.746,0 -11.199,-1.1432 -16.278,-3.2318c0.039,0.3518 0.039,0.7255 0.039,1.0773c0,31.8566 -23.044,57.6226 -51.422,57.6226c-17.161,0 -32.38,-9.41 -41.715,-23.92c-10.414,8.201 -23.0639,13.016 -36.7531,13.016c-4.5892,0 -9.1196,-0.572 -13.4538,-1.605c-11.8457,21.941 -33.3208,36.627 -57.83583,36.627c-35.53697,0 -64.68037,-30.779 -67.32797,-69.8247h-0.6865c-30.0063,-0.022 -54.3248,-27.3054 -54.3248,-60.9644c0,-33.6591 24.3185,-60.9205 54.3248,-60.9205c9.6295,0 18.6511,2.7921 26.4762,7.7168c-0.0588,-1.2972 -0.098,-2.5943 -0.098,-3.9353c0,-48.455 35.02702,-87.7199 78.2519,-87.7199c31.6341,0 58.8751,21.017 71.2111,51.3127c9.453,-6.3537 20.475,-9.9812 32.281,-9.9812c28.752,0 52.953,21.5453 60.484,51.0052c5.236,-2.2425 10.924,-3.4516 16.847,-3.4516c26.397,0 47.814,23.9856 47.814,53.5994z" fill="white"/>
</g>
</g>
</g>
<g id="layer_30">
<g id="Group_10">
<g id="Group_11">
<g id="Group_12">
<path id="Vector_5" d="M1287.08,395.498c6.64,-1.341 13.83,-2.939 18.19,-8.082c7.64,-8.912 3.56,-24.405 12.23,-32.327c6.7,-6.165 17.26,-4.28 26.12,-2.044l22.14,5.59c2.31,0.607 4.85,1.15 7.03,0.128c1.89,-0.927 3.02,-2.843 4.04,-4.664c6.97,-12.33 14.54,-24.278 22.69,-35.841c4.37,-6.165 9.82,-12.746 17.4,-13.225c15.59,-0.99 21.18,23.255 36.35,26.961c2.73,0.67 5.62,0.575 8.25,1.533c8.41,3.13 9.6,14.247 9.37,23.159c10.46,-0.83 20.77,7.954 21.54,18.4c13.67,-4.6 28.68,7.188 33.95,20.604c1.31,3.322 2.4,6.964 5.1,9.232c6.61,5.526 21.98,6.197 27.47,12.809c-95.63,0.895 -310.77,2.684 -353.45,1.342c0,0 53.21,-17.889 81.58,-23.607z" fill="white" fill-opacity="0.4"/>
</g>
</g>
<g id="Group_13">
<g id="Group_14">
<path id="Vector_6" d="M1297.76,403.165c6.03,-1.214 12.48,-2.715 16.5,-7.379c6.9,-8.082 3.21,-22.105 11.07,-29.293c6.09,-5.59 15.66,-3.865 23.68,-1.853l20.09,5.08c2.09,0.511 4.4,1.054 6.35,0.095c1.74,-0.798 2.76,-2.587 3.69,-4.248c6.29,-11.149 13.16,-21.978 20.54,-32.487c3.95,-5.59 8.92,-11.596 15.76,-12.043c14.15,-0.895 19.22,21.083 32.99,24.437c2.47,0.607 5.07,0.543 7.44,1.438c7.61,2.811 8.7,12.937 8.51,21.019c9.5,-0.767 18.8,7.187 19.51,16.642c12.39,-4.152 26.03,6.549 30.81,18.688c1.18,3.002 2.15,6.325 4.62,8.369c5.97,5.015 17.01,0.096 21.95,6.101c-86.71,0.831 -281.76,2.428 -320.43,1.214c0,0 51.15,-10.701 76.89,-15.876z" fill="white"/>
</g>
</g>
</g>
</g>
<g id="layer_33">
<g id="Group_15">
<g id="Group_16">
<path id="Vector_7" d="M681.595,975.22c-0.314,0.92 -1.334,3.62 -1.55,4.2l-0.412,0.48l-1.667,-0.72l-1.648,-4.46l0.373,-0.32c0,0 0.785,-0.9 2.373,-0.88c0.805,0 1.55,0.06 2.08,0.24c0.274,0.26 0.686,0.78 0.451,1.48z" fill="#444444"/>
</g>
<g id="Group_17">
<path id="Vector_8" d="M673.965,975.56l2.746,-1.14l1.059,0.1c1.314,0.1 2.315,1.12 2.315,2.32l-0.236,2c-0.039,0.28 -0.157,0.52 -0.372,0.72l-0.648,0.62l-4.178,2.72z" fill="#0C0000"/>
</g>
<g id="Group_18">
<path id="Vector_9" d="M665.569,961.26l13.927,0.76l-0.686,14.74l-13.496,-1.6z" fill="#FFBA38"/>
</g>
<g id="Group_19">
<g id="Group_20">
<path id="Vector_10" d="M685.832,972.8l-7.022,3.96l0.686,-14.74l7.179,-2.7z" fill="#FFC400"/>
</g>
</g>
<g id="Group_21">
<g id="Group_22">
<path id="Vector_11" d="M665.569,961.26l7.905,-2.54l13.201,0.6l-7.179,2.7z" fill="#FCD363"/>
</g>
</g>
<g id="Group_23">
<g id="Group_24">
<path id="Vector_12" d="M686.538,961.58l-7.16,2.8l0.118,-2.36l7.179,-2.72z" fill="#FFEDB2"/>
</g>
</g>
<g id="Group_25">
<path id="Vector_13" d="M676.848,975.84c0,0 2.02,3.46 -3.021,8.52c-0.255,0.26 -0.294,0.62 -0.137,0.94c0.628,1.16 2.099,3.9 2.256,4.82c0.216,1.2 0.647,2.9 0.647,2.9c0,0 -0.706,1.86 -3.727,1.24c0,0 -2.687,-5.78 -3.746,-7.5c-1.334,-2.14 -1.138,-3.38 -0.491,-4.48l-2.55,-3.06l-0.549,-4.64l11.299,1.24z" fill="#002619"/>
</g>
<g id="Group_26">
<path id="Vector_14" d="M658.92,964.64l-1.04,0.54l-2.236,2.06c0,0 0,0.26 -1.137,0.54c-1.138,0.28 -3.06,2.94 -3.06,2.94l3.197,1.58l6.12,-5.04l-1.824,-2.62z" fill="#683A28"/>
</g>
<g id="Group_27">
<path id="Vector_15" d="M657.88,965.18c0,0 1.511,-3.4 3.472,-3.56c1.962,-0.16 9.298,-1.24 9.298,-1.24c0,0 1.177,-0.32 2.334,0.54c1.157,0.86 1.55,1.42 2.197,4.14c0,0 0.235,2.3 0.412,3.1c0.137,0.58 0.863,2.96 1,5.52c0,0 0.196,1.48 0.589,2.52c0.392,1.04 0.019,0.9 0.019,0.9c0,0 0.275,-1.52 -6.041,-1.48c-6.336,0.04 -7.101,-0.06 -7.101,-0.06l0.589,-1.36c0,0 -0.589,-1.36 -0.334,-2.2c0,0 -2.766,-3.42 -2.824,-5.14l-0.707,0.66c0,0 -1.549,-2.22 -2.922,-2.34z" fill="#AFEDD6"/>
</g>
<g id="Group_28">
<path id="Vector_16" d="M669.61,981.16l-0.981,1.96c0,0 0.02,-0.14 -0.098,-0.34c-0.137,-0.28 -0.51,-0.6 -1.275,-0.64c-0.902,-0.06 -3.785,-0.18 -5.453,-0.24c-0.726,-0.04 -1.216,-0.06 -1.216,-0.06l-1.765,-1.94l-1.001,-1.1l-0.941,-1.02c0,0 0.196,-0.24 0.51,-0.56c0.902,-0.98 2.883,-2.88 4.139,-2.78c1.687,0.14 5.041,-0.1 5.825,1.32c0.785,1.4 3.256,3.42 2.276,5.4z" fill="#444444"/>
</g>
<g id="Group_29">
<path id="Vector_17" d="M662.667,976.66c0,0 0,-0.4 0,-0.76c0,-0.42 0.431,-0.7 0.863,-0.6l2.275,0.6l-1.785,2.76c-0.294,0.46 -0.883,0.7 -1.452,0.62c0,0 -1.137,-0.48 -1.549,-0.56c-0.49,-0.1 -1.942,0 -1.942,0l-1,-3.04l0.117,-0.4c0.079,-0.26 0.334,-0.42 0.608,-0.42h0.55l0.098,-0.6c0.039,-0.24 0.294,-0.4 0.569,-0.34l1.49,0.32c0.314,0.08 0.51,0.36 0.451,0.64l-0.274,1.36l1,0.42z" fill="#333333"/>
</g>
<g id="Group_30">
<path id="Vector_18" d="M661.137,981.5l-2.452,-5.3c-0.255,-0.54 -0.981,-0.76 -1.511,-0.44l-1.176,0.72l0.843,4.04z" fill="#0C0000"/>
</g>
<g id="Group_31">
<path id="Vector_19" d="M662.255,980.98l-0.471,0.92l-0.471,1c-0.137,0.26 -0.353,0.46 -0.647,0.56c-0.569,0.22 -1.687,0.62 -3.06,1.12c-2.256,0.8 -5.257,1.8 -8.062,2.56c-3.08,0.84 -5.904,1.4 -7.159,1.06c-2.57,-0.68 -1.393,-4.1 -0.903,-6.48c0.942,-4.44 3.413,-6.92 4.335,-7.72c0.216,-0.18 0.491,-0.3 0.785,-0.34l11.867,-1.22c0,0 -1.412,2.24 -1.118,4.78c0.059,0.5 0.176,0.98 0.392,1.48c0,0.04 0.02,0.06 0.039,0.1c0.236,0.5 0.608,0.86 1.02,1.1c0.961,0.58 2.217,0.6 3.001,0.54c0.314,-0.02 0.55,0.28 0.432,0.54z" fill="#333333"/>
</g>
<g id="Group_32">
<path id="Vector_20" d="M681.948,974.66c-0.059,0.62 -0.137,1.7 -0.196,2.34c-0.039,0.34 -0.157,0.66 -0.392,0.94l-1.315,1.5c0.216,-0.58 1.236,-3.3 1.55,-4.2c0.235,-0.68 -0.196,-1.22 -0.471,-1.48c0.53,0.16 0.883,0.46 0.824,0.92z" fill="#FFC400"/>
</g>
<g id="Group_33">
<path id="Vector_21" d="M637.069,970.84l4.315,0.4c0,0 1.099,-0.16 -0.569,-2.14c-1.667,-2 -4.119,-2.8 -4.943,-2.06c-0.823,0.76 -0.157,2.8 1.197,3.8z" fill="#333333"/>
</g>
<g id="Group_34">
<path id="Vector_22" d="M639.854,970.36l3.021,0.18l-0.039,0.52l-3.002,-0.18z" fill="#333333"/>
</g>
<g id="Group_35">
<path id="Vector_23" d="M645.582,976.36l-0.471,0.18l-2.726,-5.82l0.49,-0.18z" fill="#333333"/>
</g>
<g id="Group_36">
<path id="Vector_24" d="M665.373,972.7l-4.334,-0.14c0,0 -1.079,-0.26 0.823,-2.04c1.903,-1.78 4.414,-2.3 5.159,-1.46c0.745,0.84 -0.157,2.8 -1.628,3.64z" fill="#333333"/>
</g>
<g id="Group_37">
<path id="Vector_25" d="M662.627,972.38l-3.001,-0.18l0.02,-0.54l3.02,0.18z" fill="#333333"/>
</g>
<g id="Group_38">
<path id="Vector_26" d="M656.272,977.1l0.451,0.24l3.394,-5.42l-0.452,-0.24z" fill="#333333"/>
</g>
<g id="Group_39">
<path id="Vector_27" d="M669.257,959.3c1.903,1 -0.922,6.6 -2.824,5.6c-1.903,-1 0.922,-6.6 2.824,-5.6z" fill="#683A28"/>
</g>
<g id="Group_40">
<path id="Vector_28" d="M670.67,960.36c0,0 2.138,-6.2 -2.178,-7.92c-4.315,-1.74 -7.983,0.28 -8.12,3.24l-0.138,0.12c-0.117,0.1 -0.176,0.28 -0.157,0.44l0.432,4.16c0.039,0.26 0.118,0.48 0.314,0.68l0.235,0.24c0,0 0.628,2.94 2.805,2.9c4.1,-0.08 6.826,-3.84 6.826,-3.84z" fill="#FFC400"/>
</g>
<g id="Group_41">
<path id="Vector_29" d="M668.433,960.06c-1.883,1.3 -4.845,2.68 -7.375,1.3v-0.04l-0.255,-0.24c-0.177,-0.2 -0.294,-0.42 -0.333,-0.68l-0.412,-4.16c-0.02,-0.14 0.019,-0.3 0.117,-0.4c0.079,0.26 0.55,0.66 2.982,0.7c2.079,0.02 4.315,-0.14 5.767,-0.28c0.137,0.78 0.294,2.52 -0.491,3.8z" fill="#FFEDB2"/>
</g>
<g id="Group_42">
<path id="Vector_30" d="M670.316,958.44c-0.137,0.2 -0.824,0.9 -1.883,1.62c0.804,-1.28 0.608,-3 0.471,-3.8c0.981,-0.1 1.628,-0.18 1.628,-0.18c0,0 0.157,1.78 -0.235,2.36z" fill="black"/>
</g>
<g id="Group_43">
<path id="Vector_31" d="M670.14,956.48c0.314,0.02 0.255,0.98 -0.059,0.96c-0.314,-0.02 -0.255,-0.98 0.059,-0.96z" fill="#FFC400"/>
</g>
<g id="Group_44">
<path id="Vector_32" d="M645.837,976.08l0.902,-2.92c1.02,-2.96 3.178,-3.88 7.297,-2.84l4.786,1.88l-5.767,4.8l-7.218,-0.94z" fill="#444444"/>
</g>
<g id="Group_45">
<path id="Vector_33" d="M674.298,967.56c0,0 0.255,2.42 -1.451,6c-1.707,3.58 -2.158,3.06 -2.158,3.06l-0.275,0.78l-0.98,-0.06l-0.393,1.2l-1.314,-0.34l-0.078,-1.46l-0.648,0.88l-0.117,0.66l-0.667,0.44l-0.353,-0.14l0.117,-0.66l-0.51,0.24l-0.039,-1.4l0.844,-1.56l2.098,0.26l1.825,-4.3l0.313,-2.86l3.766,-0.74z" fill="#683A28"/>
</g>
<g id="Group_46">
<path id="Vector_34" d="M670.493,968.62c0,0 1.805,-0.96 4.119,-0.42l-0.117,-3.64l-4.787,0.9l0.805,3.12z" fill="#AFEDD6"/>
</g>
<g id="Group_47">
<path id="Vector_35" d="M674.298,968.16l-0.039,0.56l0.588,-0.38c0,0 -0.137,-0.1 -0.549,-0.18z" fill="#003F2B"/>
</g>
</g>
</g>
<g id="layer_34">
<g id="Group_48">
<g id="Group_49">
<path id="Vector_36" d="M1440.54,877.96l-1.03,10.061c-0.03,0.201 0.03,0.396 0.15,0.553c0.33,0.445 1.01,0.413 1.31,-0.054l4.45,-7.002z" fill="#444444"/>
</g>
<g id="Group_50">
<path id="Vector_37" d="M1444.55,875.904c0,0 -3.25,-0.499 -4.3,-0.049c-0.36,0.157 -0.47,0.64 -0.48,1.112c-0.02,0.651 0.28,1.264 0.81,1.643c1.54,1.118 5.14,3.667 6.71,4.231c2.16,0.776 10.26,0.873 10.26,0.873l0.19,-1.377l-13.19,-6.439z" fill="#333333"/>
</g>
<g id="Group_51">
<path id="Vector_38" d="M1441.23,860.158l-1.48,13.045c-0.09,0.705 0.42,1.34 1.13,1.421c3.32,0.374 12.22,1.416 15.39,1.784c0.62,0.071 1.19,-0.385 1.25,-1.008l1.28,-13.555z" fill="#FFC40C"/>
</g>
</g>
</g>
<g id="layer_29">
<g id="Group_52">
<g id="Group_53">
<g id="Group_54">
<path id="Vector_39" d="M1018.83,1006.75l-1589.717,10.96c0,0 197.822,-13.29 248.449,-18.619c10.222,-1.067 20.901,-17.844 53.027,-8.916c2.21,-2.743 2.972,-7.455 21.104,-10.452c17.651,-2.908 29.066,-3.251 35.415,-1.905c10.006,-10.249 40.38,-12.789 56.519,-4.724c10.92,-9.563 42.957,-8.916 53.052,1.067c8.9903,-3.887 18.4122,-7.887 29.8531,-9.208c11.4409,-1.321 25.434,1.016 29.9799,6.68c7.9998,-7.861 35.59255,-6.019 39.5162,2.731c9.85364,-5.029 15.5297,-14.885 53.6364,-16.84c18.4375,-0.953 28.0752,3.2 42.4113,9.448c10.7421,-11.633 60.3791,-11.049 67.1601,-1.295l17.459,-6.134c20.406,-5.067 38.12,1.27 48.431,0.063c5.434,-0.635 10.488,-1.828 15.821,-2.628c13.32,-2.02 28.101,-1.41 40.812,1.676c5.422,1.321 21.205,-1.181 26.665,-3.226c12.737,-4.75 28.698,-7.112 44.19,-6.54c6.171,0.203 12.266,0.901 18.462,0.927c11.784,0.089 18.908,-6.363 46.031,-3.594l24.583,5.296c38.818,-12.332 67.553,-7.532 84.061,3.517c13.193,-8.318 25.256,-8.597 41.421,-8.216c23.885,0.558 45.89,7.632 59.731,13.652c5.244,-9.792 36.202,-15.659 48.202,-8.293c2.666,-6.566 17.116,-10.655 30.221,-10.605c13.13,0.064 25.129,3.201 36.545,6.249c7.06,-11.748 42.005,-16.205 57.839,-7.341c14.488,-10.452 43.021,-8.521 58.182,1.181c4.61,-5.016 6.311,-5.003 16.406,-10.134c9.46,-4.814 23.403,-7.074 33.904,-2.959c4.965,1.955 13.295,2.667 16.825,5.321c1.079,-5.931 16.228,-10.338 33.992,-11.227c83.741,-4.204 59.901,84.138 59.901,84.138z" fill="white"/>
</g>
</g>
<g id="Group_55">
<g id="Group_56">
<path id="Vector_40" d="M1684.49,1008.11l-1192.669,60.65c0,0 128.91,-60.97 167.69,-69.898c7.822,-1.778 14.704,-25.603 40.329,-14.033c1.473,-3.899 1.701,-10.554 15.491,-15.266c13.422,-4.584 22.235,-5.41 27.288,-3.721c6.883,-14.63 30.196,-19.101 43.364,-8.255c7.644,-13.703 34.628,-16.103 43.313,-2.4c6.628,-5.715 7.009,-6.68 15.771,-8.877c8.762,-2.198 24.253,-1.944 28.253,5.905c5.536,-11.239 29.51,-14.059 33.294,-1.905c7.213,-7.366 5.676,-14.021 35.021,-17.907c14.197,-1.88 23.999,-1.372 35.631,6.985c6.869,-15.494 33.284,-17.793 49.994,-9.157c2.26,1.169 4.82,1.029 6.88,-0.419l9.51,-6.655c15.4,-7.67 29.63,0.661 37.5,-1.333c4.16,-1.041 7.97,-2.858 12.05,-4.14c10.16,-3.213 19.39,-3.302 29.93,-1.562c7.9,1.32 17.46,-0.915 21.5,-3.937c9.43,-7.023 22.34,-9.436 34.38,-9.119c4.8,0.114 9.58,0.902 14.4,0.737c9.14,-0.229 13.07,-7.76 34.3,-4.661l13.55,3.492c1.77,-15.71 51.69,-23.965 65.42,-8.979c9.52,-12.065 15.46,-14.998 31.22,-17.83c21.4,-3.874 33.51,-0.204 44.74,7.81c3.22,-13.868 29.47,-15.303 39.37,-5.359c1.51,-9.297 12.37,-15.418 22.52,-15.736c10.17,-0.292 19.7,3.734 28.82,7.709c4.47,-16.675 31.16,-23.939 44.18,-11.989c10.33,-15.062 32.63,-13.182 45.15,-0.05c3.14,-7.15 4.47,-7.189 11.86,-14.682c6.93,-7.01 17.54,-10.591 26.01,-5.143c4.02,2.591 10.51,3.378 13.46,6.972c0.34,-8.318 11.7,-14.935 25.38,-16.726c64.51,-8.356 45.14,179.529 45.14,179.529z" fill="white"/>
</g>
</g>
</g>
</g>
</g></svg>